<svg xmlns="http://www.w3.org/2000/svg" xmlns:xlink="http://www.w3.org/1999/xlink" width="1920" zoomAndPan="magnify" viewBox="0 0 1440 809.999993" height="1080" preserveAspectRatio="xMidYMid meet" version="1.0"><defs><clipPath id="e2cf630b84"><path d="M 427.632812 112.632812 L 1012.632812 112.632812 L 1012.632812 697.632812 L 427.632812 697.632812 Z M 427.632812 112.632812 " clip-rule="nonzero"/></clipPath></defs><g clip-path="url(#e2cf630b84)"><path fill="#231f20" d="M 967.195312 344.117188 L 954.675781 344.117188 C 947.738281 344.117188 941.617188 339.625 939.441406 333.097656 C 935.765625 322.078125 931.414062 311.328125 926.109375 301.125 C 922.976562 294.867188 924.066406 287.386719 929.101562 282.351562 L 938.078125 273.371094 C 955.765625 255.6875 955.765625 226.707031 938.078125 209.023438 L 916.039062 187.253906 C 898.355469 169.570312 869.511719 169.570312 851.691406 187.253906 L 842.710938 196.234375 C 837.8125 201.132812 830.195312 202.355469 824.074219 199.226562 C 813.871094 194.058594 803.121094 189.566406 792.101562 185.894531 C 785.433594 183.71875 781.082031 177.59375 781.082031 170.65625 L 781.082031 158.140625 C 781.082031 133.109375 760.675781 112.703125 735.640625 112.703125 L 704.761719 112.703125 C 679.726562 112.703125 659.320312 133.109375 659.320312 158.140625 L 659.320312 170.65625 C 659.320312 177.59375 654.832031 183.71875 648.300781 185.894531 C 637.28125 189.566406 626.53125 193.921875 616.328125 199.226562 C 610.070312 202.355469 602.589844 201.265625 597.554688 196.234375 L 588.574219 187.253906 C 570.890625 169.570312 541.914062 169.570312 524.226562 187.253906 L 502.324219 209.15625 C 484.636719 226.84375 484.636719 255.820312 502.324219 273.507812 L 511.300781 282.488281 C 516.199219 287.386719 517.425781 294.867188 514.292969 301.125 C 509.125 311.328125 504.636719 322.078125 500.960938 333.097656 C 498.785156 339.761719 492.664062 344.117188 485.726562 344.117188 L 473.207031 344.117188 C 448.039062 344.117188 427.632812 364.523438 427.632812 389.691406 L 427.632812 420.574219 C 427.632812 445.605469 448.039062 466.015625 473.074219 466.015625 L 485.589844 466.015625 C 492.527344 466.015625 498.648438 470.503906 500.824219 477.035156 C 504.5 488.054688 508.851562 498.800781 514.160156 509.003906 C 517.289062 515.261719 516.199219 522.746094 511.164062 527.777344 L 502.1875 536.757812 C 484.5 554.445312 484.5 583.421875 502.1875 601.109375 L 524.226562 622.875 C 541.914062 640.5625 570.753906 640.5625 588.574219 622.875 L 597.554688 613.898438 C 602.453125 609 610.070312 607.773438 616.195312 610.902344 C 626.398438 616.074219 637.144531 620.5625 648.164062 624.234375 C 654.832031 626.414062 659.183594 632.535156 659.183594 639.472656 L 659.183594 652.125 C 659.183594 677.15625 679.589844 697.566406 704.625 697.566406 L 735.507812 697.566406 C 760.539062 697.566406 780.945312 677.15625 780.945312 652.125 L 780.945312 639.472656 C 780.945312 632.535156 785.433594 626.414062 791.964844 624.234375 C 802.984375 620.5625 813.734375 616.210938 823.9375 610.902344 C 830.195312 607.773438 837.675781 608.863281 842.710938 613.898438 L 851.691406 622.875 C 869.375 640.5625 898.355469 640.5625 916.039062 622.875 L 937.945312 600.972656 C 955.628906 583.285156 955.628906 554.308594 937.945312 536.621094 L 928.964844 527.644531 C 924.066406 522.746094 922.84375 515.261719 925.972656 509.003906 C 931.140625 498.800781 935.628906 488.054688 939.304688 477.035156 C 941.480469 470.367188 947.601562 466.015625 954.542969 466.015625 L 967.058594 466.015625 C 992.089844 466.015625 1012.496094 445.605469 1012.496094 420.574219 L 1012.496094 389.691406 C 1012.632812 364.523438 992.226562 344.117188 967.195312 344.117188 Z M 983.382812 420.4375 C 983.382812 429.417969 976.035156 436.628906 967.195312 436.628906 L 954.675781 436.628906 C 935.085938 436.628906 917.808594 449.144531 911.6875 467.78125 C 908.558594 477.304688 904.613281 486.691406 900.121094 495.671875 C 891.28125 513.222656 894.542969 534.308594 908.421875 548.320312 L 917.402344 557.300781 C 923.792969 563.695312 923.792969 573.898438 917.402344 580.292969 L 895.496094 602.195312 C 889.101562 608.589844 878.761719 608.453125 872.503906 602.195312 L 863.527344 593.21875 C 849.648438 579.339844 828.5625 575.941406 810.875 584.917969 C 801.898438 589.40625 792.644531 593.355469 782.988281 596.484375 C 764.347656 602.605469 751.832031 619.882812 751.832031 639.472656 L 751.832031 652.125 C 751.832031 661.105469 744.484375 668.316406 735.640625 668.316406 L 704.761719 668.316406 C 695.78125 668.316406 688.570312 660.96875 688.570312 652.125 L 688.570312 639.472656 C 688.570312 619.882812 676.054688 602.605469 657.414062 596.484375 C 647.890625 593.355469 638.503906 589.40625 629.527344 584.917969 C 622.996094 581.652344 615.921875 580.019531 608.984375 580.019531 C 597.28125 580.019531 585.71875 584.648438 577.011719 593.355469 L 568.03125 602.332031 C 561.640625 608.589844 551.433594 608.726562 545.042969 602.332031 L 523.136719 580.429688 C 516.742188 574.035156 516.742188 563.832031 523.136719 557.4375 L 532.117188 548.457031 C 545.992188 534.582031 549.394531 513.496094 540.414062 495.808594 C 535.925781 486.828125 531.980469 477.578125 528.851562 467.917969 C 522.730469 449.28125 505.453125 436.765625 485.859375 436.765625 L 473.34375 436.765625 C 464.367188 436.765625 457.15625 429.417969 457.15625 420.574219 L 457.15625 389.691406 C 457.15625 380.710938 464.5 373.503906 473.34375 373.503906 L 485.859375 373.503906 C 505.453125 373.503906 522.730469 360.984375 528.851562 342.347656 C 531.980469 332.824219 535.925781 323.4375 540.414062 314.457031 C 549.257812 296.910156 545.992188 275.820312 532.117188 261.808594 L 523.136719 252.828125 C 516.742188 246.433594 516.742188 236.230469 523.136719 229.835938 L 545.042969 207.933594 C 551.433594 201.539062 561.640625 201.539062 568.03125 207.933594 L 577.011719 216.914062 C 590.890625 230.789062 612.113281 234.191406 629.664062 225.210938 C 638.640625 220.722656 647.890625 216.777344 657.550781 213.648438 C 676.191406 207.527344 688.707031 190.246094 688.707031 170.65625 L 688.707031 158.140625 C 688.707031 149.160156 696.054688 141.953125 704.894531 141.953125 L 735.777344 141.953125 C 744.757812 141.953125 751.96875 149.296875 751.96875 158.140625 L 751.96875 170.65625 C 751.96875 190.246094 764.484375 207.527344 783.121094 213.648438 C 792.644531 216.777344 802.03125 220.722656 811.011719 225.210938 C 828.5625 234.054688 849.648438 230.789062 863.664062 216.914062 L 872.640625 207.933594 C 878.898438 201.539062 889.238281 201.539062 895.632812 207.933594 L 917.535156 229.835938 C 923.929688 236.230469 923.929688 246.433594 917.535156 252.828125 L 908.558594 261.808594 C 894.679688 275.683594 891.28125 296.773438 900.257812 314.457031 C 904.75 323.4375 908.695312 332.6875 911.824219 342.347656 C 917.945312 360.984375 935.222656 373.503906 954.8125 373.503906 L 967.328125 373.503906 C 976.308594 373.503906 983.519531 380.847656 983.519531 389.691406 L 983.519531 420.4375 Z M 983.382812 420.4375 " fill-opacity="1" fill-rule="nonzero"/></g><path fill="#231f20" d="M 720.132812 251.46875 C 635.511719 251.46875 566.535156 320.308594 566.535156 405.066406 C 566.535156 489.820312 635.511719 558.660156 720.132812 558.660156 C 804.753906 558.660156 873.730469 489.6875 873.730469 405.066406 C 873.730469 320.445312 804.753906 251.46875 720.132812 251.46875 Z M 720.132812 529.410156 C 651.566406 529.410156 595.785156 473.632812 595.785156 405.066406 C 595.785156 336.496094 651.566406 280.71875 720.132812 280.71875 C 788.699219 280.71875 844.480469 336.496094 844.480469 405.066406 C 844.480469 473.632812 788.699219 529.410156 720.132812 529.410156 Z M 720.132812 529.410156 " fill-opacity="1" fill-rule="nonzero"/></svg>