<svg xmlns="http://www.w3.org/2000/svg" xmlns:xlink="http://www.w3.org/1999/xlink" width="1920" zoomAndPan="magnify" viewBox="0 0 1440 809.999993" height="1080" preserveAspectRatio="xMidYMid meet" version="1.0"><defs><clipPath id="c4a8f08f39"><path d="M 536 325 L 1260.824219 325 L 1260.824219 485 L 536 485 Z M 536 325 " clip-rule="nonzero"/></clipPath></defs><g clip-path="url(#c4a8f08f39)"><path fill="#ffffff" d="M 587.851562 325.292969 L 1277.023438 325.292969 C 1305.566406 325.292969 1328.71875 348.445312 1328.71875 376.988281 L 1328.71875 432.828125 C 1328.71875 461.371094 1305.566406 484.523438 1277.023438 484.523438 L 587.886719 484.523438 C 559.347656 484.523438 536.195312 461.371094 536.195312 432.828125 L 536.195312 376.988281 C 536.195312 348.445312 559.3125 325.292969 587.851562 325.292969 Z M 587.851562 325.292969 " fill-opacity="1" fill-rule="nonzero"/></g><path fill="#ffffff" d="M 226.957031 465.375 L 499.746094 622.867188 C 546.296875 649.742188 604.480469 616.128906 604.480469 562.378906 L 604.480469 247.398438 C 604.480469 193.648438 546.296875 160.039062 499.746094 186.914062 L 226.957031 344.402344 C 180.402344 371.3125 180.402344 438.5 226.957031 465.375 Z M 226.957031 465.375 " fill-opacity="1" fill-rule="nonzero"/></svg>