<svg xmlns="http://www.w3.org/2000/svg" xmlns:xlink="http://www.w3.org/1999/xlink" width="1920" zoomAndPan="magnify" viewBox="0 0 1440 809.999993" height="1080" preserveAspectRatio="xMidYMid meet" version="1.0"><defs><clipPath id="6e22b7a450"><path d="M 536 325 L 1260.824219 325 L 1260.824219 485 L 536 485 Z M 536 325 " clip-rule="nonzero"/></clipPath></defs><g clip-path="url(#6e22b7a450)"><path fill="#000000" d="M 588.085938 325.214844 L 1277.042969 325.214844 C 1305.574219 325.214844 1328.71875 348.375 1328.71875 376.921875 L 1328.71875 432.777344 C 1328.71875 461.324219 1305.574219 484.480469 1277.042969 484.480469 L 588.121094 484.480469 C 559.589844 484.480469 536.445312 461.324219 536.445312 432.777344 L 536.445312 376.921875 C 536.445312 348.375 559.554688 325.214844 588.085938 325.214844 Z M 588.085938 325.214844 " fill-opacity="1" fill-rule="nonzero"/></g><path fill="#000000" d="M 227.304688 465.332031 L 500.007812 622.859375 C 546.546875 649.742188 604.710938 616.121094 604.710938 562.359375 L 604.710938 247.300781 C 604.710938 193.539062 546.546875 159.921875 500.007812 186.800781 L 227.304688 344.332031 C 180.765625 371.246094 180.765625 438.449219 227.304688 465.332031 Z M 227.304688 465.332031 " fill-opacity="1" fill-rule="nonzero"/></svg>