<svg xmlns="http://www.w3.org/2000/svg" xmlns:xlink="http://www.w3.org/1999/xlink" width="1920" zoomAndPan="magnify" viewBox="0 0 1440 809.999993" height="1080" preserveAspectRatio="xMidYMid meet" version="1.0"><defs><clipPath id="7455fcdb0e"><path d="M 390.640625 75.640625 L 1049.140625 75.640625 L 1049.140625 734.140625 L 390.640625 734.140625 Z M 390.640625 75.640625 " clip-rule="nonzero"/></clipPath></defs><g clip-path="url(#7455fcdb0e)"><path fill="#b3b3b3" d="M 952.886719 172.109375 C 890.679688 109.902344 807.976562 75.640625 719.996094 75.640625 C 632.019531 75.640625 549.3125 109.902344 487.109375 172.109375 C 424.902344 234.3125 390.640625 317.027344 390.640625 404.996094 C 390.640625 492.96875 424.902344 575.679688 487.109375 637.886719 C 549.3125 700.09375 632.019531 734.351562 719.996094 734.351562 C 807.976562 734.351562 890.679688 700.09375 952.886719 637.886719 C 1015.09375 575.679688 1049.351562 492.976562 1049.351562 404.996094 C 1049.351562 317.019531 1015.09375 234.3125 952.886719 172.109375 Z M 952.886719 172.109375 " fill-opacity="1" fill-rule="nonzero"/></g><path fill="#f2f2f2" d="M 798.65625 248.566406 C 799.941406 249.851562 801.199219 251.171875 802.421875 252.519531 C 803.640625 253.867188 804.832031 255.246094 805.984375 256.652344 C 807.140625 258.0625 808.261719 259.496094 809.34375 260.957031 C 810.429688 262.417969 811.476562 263.90625 812.488281 265.421875 C 813.5 266.933594 814.472656 268.472656 815.410156 270.035156 C 816.34375 271.59375 817.242188 273.179688 818.101562 274.785156 C 818.957031 276.390625 819.777344 278.015625 820.554688 279.660156 C 821.332031 281.308594 822.070312 282.96875 822.769531 284.652344 C 823.464844 286.335938 824.121094 288.03125 824.734375 289.746094 C 825.347656 291.460938 825.917969 293.1875 826.445312 294.929688 C 826.972656 296.671875 827.460938 298.425781 827.902344 300.191406 C 828.34375 301.957031 828.742188 303.734375 829.097656 305.519531 C 829.453125 307.304688 829.765625 309.097656 830.03125 310.898438 C 830.296875 312.699219 830.519531 314.503906 830.699219 316.316406 C 830.878906 318.128906 831.011719 319.945312 831.101562 321.761719 C 831.191406 323.582031 831.234375 325.398438 831.234375 327.21875 C 831.234375 329.039062 831.191406 330.859375 831.101562 332.679688 C 831.011719 334.496094 830.878906 336.3125 830.699219 338.125 C 830.519531 339.933594 830.296875 341.742188 830.03125 343.542969 C 829.765625 345.34375 829.453125 347.136719 829.097656 348.921875 C 828.742188 350.707031 828.34375 352.480469 827.902344 354.25 C 827.460938 356.015625 826.972656 357.769531 826.445312 359.511719 C 825.917969 361.253906 825.347656 362.980469 824.734375 364.695312 C 824.121094 366.410156 823.464844 368.105469 822.769531 369.789062 C 822.070312 371.46875 821.332031 373.132812 820.554688 374.78125 C 819.777344 376.425781 818.957031 378.050781 818.101562 379.65625 C 817.242188 381.261719 816.34375 382.84375 815.410156 384.40625 C 814.472656 385.96875 813.5 387.503906 812.488281 389.019531 C 811.476562 390.53125 810.429688 392.019531 809.34375 393.484375 C 808.261719 394.945312 807.140625 396.378906 805.984375 397.785156 C 804.832031 399.195312 803.640625 400.570312 802.421875 401.921875 C 801.199219 403.269531 799.941406 404.589844 798.65625 405.875 C 797.367188 407.164062 796.050781 408.417969 794.699219 409.640625 C 793.351562 410.863281 791.972656 412.050781 790.566406 413.207031 C 789.160156 414.359375 787.726562 415.480469 786.261719 416.566406 C 784.800781 417.648438 783.3125 418.699219 781.800781 419.707031 C 780.285156 420.71875 778.746094 421.695312 777.1875 422.628906 C 775.625 423.566406 774.042969 424.460938 772.4375 425.320312 C 770.832031 426.179688 769.203125 426.996094 767.558594 427.777344 C 765.914062 428.554688 764.25 429.292969 762.566406 429.988281 C 760.886719 430.683594 759.1875 431.339844 757.472656 431.953125 C 755.761719 432.566406 754.03125 433.136719 752.289062 433.664062 C 750.546875 434.195312 748.792969 434.679688 747.027344 435.121094 C 745.261719 435.5625 743.488281 435.960938 741.699219 436.316406 C 739.914062 436.671875 738.121094 436.984375 736.320312 437.25 C 734.519531 437.519531 732.714844 437.742188 730.902344 437.917969 C 729.089844 438.097656 727.277344 438.230469 725.457031 438.320312 C 723.640625 438.410156 721.820312 438.457031 720 438.457031 C 718.179688 438.457031 716.359375 438.410156 714.542969 438.320312 C 712.722656 438.230469 710.910156 438.097656 709.097656 437.917969 C 707.285156 437.742188 705.480469 437.519531 703.679688 437.25 C 701.878906 436.984375 700.085938 436.671875 698.300781 436.316406 C 696.515625 435.960938 694.738281 435.5625 692.972656 435.121094 C 691.207031 434.679688 689.453125 434.195312 687.710938 433.664062 C 685.96875 433.136719 684.242188 432.566406 682.527344 431.953125 C 680.8125 431.339844 679.113281 430.683594 677.433594 429.988281 C 675.75 429.292969 674.085938 428.554688 672.441406 427.777344 C 670.796875 426.996094 669.167969 426.179688 667.5625 425.320312 C 665.957031 424.460938 664.375 423.566406 662.8125 422.628906 C 661.253906 421.695312 659.714844 420.71875 658.203125 419.707031 C 656.6875 418.699219 655.199219 417.648438 653.738281 416.566406 C 652.277344 415.480469 650.839844 414.359375 649.433594 413.207031 C 648.027344 412.050781 646.648438 410.863281 645.300781 409.640625 C 643.949219 408.417969 642.632812 407.164062 641.34375 405.875 C 640.058594 404.589844 638.804688 403.269531 637.582031 401.921875 C 636.359375 400.574219 635.167969 399.195312 634.015625 397.785156 C 632.859375 396.378906 631.738281 394.945312 630.65625 393.484375 C 629.570312 392.019531 628.523438 390.53125 627.511719 389.019531 C 626.5 387.503906 625.527344 385.96875 624.589844 384.40625 C 623.65625 382.84375 622.757812 381.261719 621.898438 379.65625 C 621.042969 378.050781 620.222656 376.425781 619.445312 374.78125 C 618.667969 373.132812 617.929688 371.46875 617.234375 369.789062 C 616.535156 368.105469 615.882812 366.40625 615.269531 364.695312 C 614.65625 362.980469 614.082031 361.253906 613.554688 359.511719 C 613.027344 357.769531 612.542969 356.015625 612.097656 354.25 C 611.65625 352.480469 611.257812 350.707031 610.902344 348.921875 C 610.546875 347.136719 610.234375 345.34375 609.96875 343.542969 C 609.703125 341.742188 609.480469 339.933594 609.300781 338.125 C 609.121094 336.3125 608.988281 334.496094 608.898438 332.679688 C 608.808594 330.859375 608.765625 329.039062 608.765625 327.21875 C 608.765625 325.398438 608.808594 323.582031 608.898438 321.761719 C 608.988281 319.945312 609.121094 318.128906 609.300781 316.316406 C 609.480469 314.503906 609.703125 312.699219 609.96875 310.898438 C 610.234375 309.097656 610.546875 307.304688 610.902344 305.519531 C 611.257812 303.734375 611.65625 301.957031 612.097656 300.191406 C 612.542969 298.425781 613.027344 296.671875 613.554688 294.929688 C 614.082031 293.1875 614.652344 291.460938 615.269531 289.746094 C 615.882812 288.03125 616.535156 286.335938 617.234375 284.652344 C 617.929688 282.96875 618.667969 281.308594 619.445312 279.660156 C 620.222656 278.015625 621.042969 276.390625 621.898438 274.785156 C 622.757812 273.179688 623.65625 271.59375 624.589844 270.035156 C 625.527344 268.472656 626.5 266.933594 627.511719 265.421875 C 628.523438 263.90625 629.570312 262.417969 630.65625 260.957031 C 631.738281 259.496094 632.859375 258.0625 634.015625 256.652344 C 635.167969 255.246094 636.359375 253.867188 637.582031 252.519531 C 638.804688 251.171875 640.058594 249.851562 641.34375 248.566406 C 642.632812 247.277344 643.949219 246.023438 645.300781 244.800781 C 646.648438 243.578125 648.027344 242.390625 649.433594 241.234375 C 650.839844 240.078125 652.277344 238.960938 653.738281 237.875 C 655.199219 236.789062 656.6875 235.742188 658.203125 234.730469 C 659.714844 233.71875 661.253906 232.746094 662.8125 231.8125 C 664.375 230.875 665.957031 229.976562 667.566406 229.121094 C 669.167969 228.261719 670.796875 227.441406 672.441406 226.664062 C 674.085938 225.886719 675.75 225.148438 677.433594 224.453125 C 679.113281 223.757812 680.8125 223.101562 682.527344 222.488281 C 684.242188 221.875 685.96875 221.304688 687.710938 220.773438 C 689.453125 220.246094 691.207031 219.761719 692.972656 219.320312 C 694.738281 218.875 696.515625 218.476562 698.300781 218.121094 C 700.085938 217.765625 701.878906 217.457031 703.679688 217.1875 C 705.480469 216.921875 707.285156 216.699219 709.097656 216.519531 C 710.910156 216.34375 712.722656 216.207031 714.542969 216.121094 C 716.359375 216.03125 718.179688 215.984375 720 215.984375 C 721.820312 215.984375 723.640625 216.03125 725.457031 216.121094 C 727.277344 216.207031 729.089844 216.34375 730.902344 216.519531 C 732.714844 216.699219 734.519531 216.921875 736.320312 217.1875 C 738.121094 217.457031 739.914062 217.765625 741.699219 218.121094 C 743.488281 218.476562 745.261719 218.875 747.027344 219.320312 C 748.792969 219.761719 750.546875 220.246094 752.289062 220.773438 C 754.03125 221.304688 755.761719 221.875 757.472656 222.488281 C 759.1875 223.101562 760.886719 223.753906 762.566406 224.453125 C 764.25 225.148438 765.914062 225.886719 767.558594 226.664062 C 769.203125 227.441406 770.832031 228.261719 772.4375 229.121094 C 774.042969 229.976562 775.625 230.875 777.1875 231.8125 C 778.746094 232.746094 780.285156 233.71875 781.800781 234.730469 C 783.3125 235.742188 784.800781 236.789062 786.261719 237.875 C 787.726562 238.960938 789.160156 240.078125 790.566406 241.234375 C 791.972656 242.390625 793.351562 243.578125 794.699219 244.800781 C 796.050781 246.023438 797.367188 247.277344 798.65625 248.566406 Z M 798.65625 248.566406 " fill-opacity="1" fill-rule="nonzero"/><path fill="#f2f2f2" d="M 723.214844 487.882812 L 716.785156 487.882812 C 625.898438 487.882812 549.359375 549.246094 526.292969 632.800781 C 578.527344 677.285156 646.175781 704.175781 719.996094 704.175781 C 793.820312 704.175781 861.46875 677.285156 913.703125 632.800781 C 890.636719 549.25 814.101562 487.882812 723.207031 487.882812 Z M 723.214844 487.882812 " fill-opacity="1" fill-rule="nonzero"/></svg>